<?xml version="1.0" encoding="UTF-8" standalone="no"?>
<svg
   height="24"
   viewBox="0 -960 960 960"
   width="24"
   version="1.1"
   id="svg1"
   sodipodi:docname="brain.svg"
   inkscape:export-filename="brain.png"
   inkscape:export-xdpi="1200"
   inkscape:export-ydpi="1200"
   inkscape:version="1.3 (0e150ed6c4, 2023-07-21)"
   xmlns:inkscape="http://www.inkscape.org/namespaces/inkscape"
   xmlns:sodipodi="http://sodipodi.sourceforge.net/DTD/sodipodi-0.dtd"
   xmlns="http://www.w3.org/2000/svg"
   xmlns:svg="http://www.w3.org/2000/svg">
  <defs
     id="defs1" />
  <sodipodi:namedview
     id="namedview1"
     pagecolor="#505050"
     bordercolor="#eeeeee"
     borderopacity="1"
     inkscape:showpageshadow="0"
     inkscape:pageopacity="0"
     inkscape:pagecheckerboard="0"
     inkscape:deskcolor="#505050"
     inkscape:zoom="16.708333"
     inkscape:cx="12"
     inkscape:cy="11.970075"
     inkscape:window-width="1920"
     inkscape:window-height="1046"
     inkscape:window-x="2293"
     inkscape:window-y="-11"
     inkscape:window-maximized="1"
     inkscape:current-layer="svg1" />
  <path
     d="M240-80v-172q-57-52-88.5-121.5T120-520q0-150 105-255t255-105q125 0 221.5 73.5T827-615l52 205q5 19-7 34.5T840-360h-80v120q0 33-23.5 56.5T680-160h-80v80h-80v-160h160v-200h108l-38-155q-23-91-98-148t-172-57q-116 0-198 81t-82 197q0 60 24.5 114t69.5 96l26 24v208h-80Zm254-360Zm-54 80h80l6-50q8-3 14.5-7t11.5-9l46 20 40-68-40-30q2-8 2-16t-2-16l40-30-40-68-46 20q-5-5-11.5-9t-14.5-7l-6-50h-80l-6 50q-8 3-14.5 7t-11.5 9l-46-20-40 68 40 30q-2 8-2 16t2 16l-40 30 40 68 46-20q5 5 11.5 9t14.5 7l6 50Zm40-100q-25 0-42.5-17.5T420-520q0-25 17.5-42.5T480-580q25 0 42.5 17.5T540-520q0 25-17.5 42.5T480-460Z"
     id="path1" />
</svg>
