<?xml version="1.0" encoding="UTF-8" standalone="no"?>
<svg
   height="24"
   viewBox="0 -960 960 960"
   width="24"
   version="1.1"
   id="svg1"
   sodipodi:docname="directions_bus_FILL0_wght400_GRAD0_opsz24.svg"
   inkscape:export-filename="bus.png"
   inkscape:export-xdpi="1200"
   inkscape:export-ydpi="1200"
   inkscape:version="1.3 (0e150ed6c4, 2023-07-21)"
   xmlns:inkscape="http://www.inkscape.org/namespaces/inkscape"
   xmlns:sodipodi="http://sodipodi.sourceforge.net/DTD/sodipodi-0.dtd"
   xmlns="http://www.w3.org/2000/svg"
   xmlns:svg="http://www.w3.org/2000/svg">
  <defs
     id="defs1" />
  <sodipodi:namedview
     id="namedview1"
     pagecolor="#505050"
     bordercolor="#eeeeee"
     borderopacity="1"
     inkscape:showpageshadow="0"
     inkscape:pageopacity="0"
     inkscape:pagecheckerboard="0"
     inkscape:deskcolor="#505050"
     inkscape:zoom="24.208333"
     inkscape:cx="12"
     inkscape:cy="11.979346"
     inkscape:window-width="1920"
     inkscape:window-height="1046"
     inkscape:window-x="-11"
     inkscape:window-y="-11"
     inkscape:window-maximized="1"
     inkscape:current-layer="svg1" />
  <path
     d="m 240,-100 q -17,0 -28.5,-11.5 Q 200,-123 200,-140 v -82 q -18,-20 -29,-44.5 -11,-24.5 -11,-53.5 v -380 q 0,-83 77,-121.5 77,-38.5 243,-38.5 172,0 246,37 74,37 74,123 v 380 q 0,29 -11,53.5 -11,24.5 -29,44.5 v 82 q 0,17 -11.5,28.5 Q 737,-100 720,-100 h -40 q -17,0 -28.5,-11.5 Q 640,-123 640,-140 v -40 H 320 v 40 q 0,17 -11.5,28.5 Q 297,-100 280,-100 Z M 482,-740 H 706 258 Z m 158,280 H 240 720 Z M 240,-540 H 720 V -660 H 240 Z m 100,240 q 25,0 42.5,-17.5 Q 400,-335 400,-360 400,-385 382.5,-402.5 365,-420 340,-420 q -25,0 -42.5,17.5 -17.5,17.5 -17.5,42.5 0,25 17.5,42.5 17.5,17.5 42.5,17.5 z m 280,0 q 25,0 42.5,-17.5 Q 680,-335 680,-360 680,-385 662.5,-402.5 645,-420 620,-420 q -25,0 -42.5,17.5 -17.5,17.5 -17.5,42.5 0,25 17.5,42.5 Q 595,-300 620,-300 Z M 258,-740 H 706 Q 691,-757 641.5,-768.5 592,-780 482,-780 375,-780 325.5,-767.5 276,-755 258,-740 Z m 62,480 h 320 q 33,0 56.5,-23.5 Q 720,-307 720,-340 V -460 H 240 v 120 q 0,33 23.5,56.5 23.5,23.5 56.5,23.5 z"
     id="path1"
     style="fill:#19a6a2;fill-opacity:1" />
</svg>
