<?xml version="1.0" encoding="UTF-8" standalone="no"?>
<svg
   height="24"
   viewBox="0 -960 960 960"
   width="24"
   version="1.1"
   id="svg1"
   sodipodi:docname="car.svg"
   inkscape:export-filename="car.png"
   inkscape:export-xdpi="1200"
   inkscape:export-ydpi="1200"
   inkscape:version="1.3 (0e150ed6c4, 2023-07-21)"
   xmlns:inkscape="http://www.inkscape.org/namespaces/inkscape"
   xmlns:sodipodi="http://sodipodi.sourceforge.net/DTD/sodipodi-0.dtd"
   xmlns="http://www.w3.org/2000/svg"
   xmlns:svg="http://www.w3.org/2000/svg">
  <defs
     id="defs1" />
  <sodipodi:namedview
     id="namedview1"
     pagecolor="#505050"
     bordercolor="#eeeeee"
     borderopacity="1"
     inkscape:showpageshadow="0"
     inkscape:pageopacity="0"
     inkscape:pagecheckerboard="0"
     inkscape:deskcolor="#505050"
     inkscape:zoom="34"
     inkscape:cx="11.985294"
     inkscape:cy="12"
     inkscape:window-width="1920"
     inkscape:window-height="1046"
     inkscape:window-x="-11"
     inkscape:window-y="-11"
     inkscape:window-maximized="1"
     inkscape:current-layer="svg1" />
  <path
     d="m 240,-240 v 40 q 0,17 -11.5,28.5 Q 217,-160 200,-160 h -40 q -17,0 -28.5,-11.5 Q 120,-183 120,-200 v -320 l 84,-240 q 6,-18 21.5,-29 15.5,-11 34.5,-11 h 440 q 19,0 34.5,11 15.5,11 21.5,29 l 84,240 v 320 q 0,17 -11.5,28.5 Q 817,-160 800,-160 h -40 q -17,0 -28.5,-11.5 Q 720,-183 720,-200 v -40 z m -8,-360 H 728 L 686,-720 H 274 Z m -32,80 v 200 z m 100,160 q 25,0 42.5,-17.5 Q 360,-395 360,-420 360,-445 342.5,-462.5 325,-480 300,-480 q -25,0 -42.5,17.5 -17.5,17.5 -17.5,42.5 0,25 17.5,42.5 17.5,17.5 42.5,17.5 z m 360,0 q 25,0 42.5,-17.5 Q 720,-395 720,-420 720,-445 702.5,-462.5 685,-480 660,-480 q -25,0 -42.5,17.5 -17.5,17.5 -17.5,42.5 0,25 17.5,42.5 17.5,17.5 42.5,17.5 z m -460,40 H 760 V -520 H 200 Z"
     id="path1"
     style="fill:#19a6a2;fill-opacity:1" />
</svg>
