<?xml version="1.0" encoding="UTF-8" standalone="no"?>
<svg
   height="24"
   viewBox="0 -960 960 960"
   width="24"
   version="1.1"
   id="svg1"
   sodipodi:docname="group.svg"
   inkscape:export-filename="group.png"
   inkscape:export-xdpi="1200"
   inkscape:export-ydpi="1200"
   inkscape:version="1.3 (0e150ed6c4, 2023-07-21)"
   xmlns:inkscape="http://www.inkscape.org/namespaces/inkscape"
   xmlns:sodipodi="http://sodipodi.sourceforge.net/DTD/sodipodi-0.dtd"
   xmlns="http://www.w3.org/2000/svg"
   xmlns:svg="http://www.w3.org/2000/svg">
  <defs
     id="defs1" />
  <sodipodi:namedview
     id="namedview1"
     pagecolor="#505050"
     bordercolor="#eeeeee"
     borderopacity="1"
     inkscape:showpageshadow="0"
     inkscape:pageopacity="0"
     inkscape:pagecheckerboard="0"
     inkscape:deskcolor="#505050"
     inkscape:zoom="16.708333"
     inkscape:cx="12"
     inkscape:cy="11.970075"
     inkscape:window-width="1920"
     inkscape:window-height="1046"
     inkscape:window-x="2293"
     inkscape:window-y="-11"
     inkscape:window-maximized="1"
     inkscape:current-layer="svg1" />
  <path
     d="M500-482q29-32 44.5-73t15.5-85q0-44-15.5-85T500-798q60 8 100 53t40 105q0 60-40 105t-100 53Zm220 322v-120q0-36-16-68.5T662-406q51 18 94.5 46.5T800-280v120h-80Zm80-280v-80h-80v-80h80v-80h80v80h80v80h-80v80h-80Zm-480-40q-66 0-113-47t-47-113q0-66 47-113t113-47q66 0 113 47t47 113q0 66-47 113t-113 47ZM0-160v-112q0-34 17.5-62.5T64-378q62-31 126-46.5T320-440q66 0 130 15.5T576-378q29 15 46.5 43.5T640-272v112H0Zm320-400q33 0 56.5-23.5T400-640q0-33-23.5-56.5T320-720q-33 0-56.5 23.5T240-640q0 33 23.5 56.5T320-560ZM80-240h480v-32q0-11-5.5-20T540-306q-54-27-109-40.5T320-360q-56 0-111 13.5T100-306q-9 5-14.5 14T80-272v32Zm240-400Zm0 400Z"
     id="path1" />
</svg>
