<?xml version="1.0" encoding="UTF-8" standalone="no"?>
<svg
   height="24"
   viewBox="0 -960 960 960"
   width="24"
   version="1.1"
   id="svg1"
   sodipodi:docname="security.svg"
   inkscape:export-filename="security.png"
   inkscape:export-xdpi="1200"
   inkscape:export-ydpi="1200"
   inkscape:version="1.3 (0e150ed6c4, 2023-07-21)"
   xmlns:inkscape="http://www.inkscape.org/namespaces/inkscape"
   xmlns:sodipodi="http://sodipodi.sourceforge.net/DTD/sodipodi-0.dtd"
   xmlns="http://www.w3.org/2000/svg"
   xmlns:svg="http://www.w3.org/2000/svg">
  <defs
     id="defs1" />
  <sodipodi:namedview
     id="namedview1"
     pagecolor="#505050"
     bordercolor="#eeeeee"
     borderopacity="1"
     inkscape:showpageshadow="0"
     inkscape:pageopacity="0"
     inkscape:pagecheckerboard="0"
     inkscape:deskcolor="#505050"
     inkscape:zoom="16.708333"
     inkscape:cx="12"
     inkscape:cy="11.970075"
     inkscape:window-width="1920"
     inkscape:window-height="1046"
     inkscape:window-x="2293"
     inkscape:window-y="-11"
     inkscape:window-maximized="1"
     inkscape:current-layer="svg1" />
  <path
     d="M480-80q-139-35-229.5-159.5T160-516v-244l320-120 320 120v244q0 152-90.5 276.5T480-80Zm0-84q104-33 172-132t68-220v-189l-240-90-240 90v189q0 121 68 220t172 132Zm0-316Zm-80 160h160q17 0 28.5-11.5T600-360v-120q0-17-11.5-28.5T560-520v-40q0-33-23.5-56.5T480-640q-33 0-56.5 23.5T400-560v40q-17 0-28.5 11.5T360-480v120q0 17 11.5 28.5T400-320Zm40-200v-40q0-17 11.5-28.5T480-600q17 0 28.5 11.5T520-560v40h-80Z"
     id="path1" />
</svg>
