<?xml version="1.0" encoding="UTF-8" standalone="no"?>
<svg
   height="24px"
   viewBox="0 -960 960 960"
   width="24px"
   fill="#e8eaed"
   version="1.1"
   id="svg1"
   sodipodi:docname="send_money.svg"
   inkscape:export-filename="send_money.png"
   inkscape:export-xdpi="1200"
   inkscape:export-ydpi="1200"
   inkscape:version="1.3.2 (091e20e, 2023-11-25, custom)"
   xmlns:inkscape="http://www.inkscape.org/namespaces/inkscape"
   xmlns:sodipodi="http://sodipodi.sourceforge.net/DTD/sodipodi-0.dtd"
   xmlns="http://www.w3.org/2000/svg"
   xmlns:svg="http://www.w3.org/2000/svg">
  <defs
     id="defs1" />
  <sodipodi:namedview
     id="namedview1"
     pagecolor="#ffffff"
     bordercolor="#000000"
     borderopacity="0.25"
     inkscape:showpageshadow="2"
     inkscape:pageopacity="0.0"
     inkscape:pagecheckerboard="0"
     inkscape:deskcolor="#d1d1d1"
     inkscape:export-bgcolor="#ffffff00"
     inkscape:zoom="35.041667"
     inkscape:cx="12"
     inkscape:cy="12"
     inkscape:window-width="1920"
     inkscape:window-height="1051"
     inkscape:window-x="-9"
     inkscape:window-y="-9"
     inkscape:window-maximized="1"
     inkscape:current-layer="svg1" />
  <path
     d="M240-170Q136-197 68-282T0-480q0-113 68-198t172-112v84q-71 24-115.5 86T80-480q0 78 44.5 140T240-254v84Zm320 10q-133 0-226.5-93.5T240-480q0-133 93.5-226.5T560-800q66 0 124 25t102 69l-56 56q-33-33-76.5-51.5T560-720q-100 0-170 70t-70 170q0 100 70 170t170 70q50 0 93.5-18.5T730-310l56 56q-44 44-102 69t-124 25Zm240-160-56-56 64-64H520v-80h288l-64-64 56-56 160 160-160 160Z"
     id="path1"
     style="opacity:1;fill:#000000" />
</svg>
